<?xml version="1.0" encoding="utf-8"?>
<!-- Generator: Adobe Illustrator 22.1.0, SVG Export Plug-In . SVG Version: 6.00 Build 0)  -->
<svg version="1.1" xmlns="http://www.w3.org/2000/svg" xmlns:xlink="http://www.w3.org/1999/xlink" x="0px" y="0px"
	 viewBox="0 0 1400 1000" style="enable-background:new 0 0 1400 1000;" xml:space="preserve">
<style type="text/css">
	.st0{fill:#FFFFFF;}
	.st1{fill:url(#SVGID_1_);}
	.st2{fill:#E27C29;}
	.st3{fill:#C66318;}
	.st4{fill:#F49D4E;}
	.st5{fill:#4C91D6;}
	.st6{fill:#2D2D2D;}
	.st7{fill:#F2B48B;}
	.st8{fill:#F7C29A;}
	.st9{fill:none;}
	.st10{fill:#ED3624;}
	.st11{fill:#D3160D;}
	.st12{fill:#D1D1D1;}
	.st13{fill:#2BA8E9;}
	.st14{fill:#1C68B5;}
	.st15{opacity:0.15;fill:#F9F8F7;}
	.st16{opacity:0.3;fill:#9B1515;}
	.st17{fill:#9B1515;}
	.st18{opacity:0.75;fill:#FFFFFF;}
	.st19{fill:#61BF3A;}
	.st20{fill:#48962A;}
</style>
<g id="BACKGROUND">
	<rect class="st0" width="1400" height="1000"/>
</g>
<g id="OBJECTS">
	<g>
		<linearGradient id="SVGID_1_" gradientUnits="userSpaceOnUse" x1="700" y1="936.6461" x2="700" y2="208.5497">
			<stop  offset="1.768610e-02" style="stop-color:#FFEAB7"/>
			<stop  offset="1" style="stop-color:#FFEBDC"/>
		</linearGradient>
		<path class="st1" d="M1222.5,498.7H1093c-35.5,0-65.6-28-66.3-63.5c-0.4-18.4,7-35.2,19-47.2c11.7-11.7,27.9-19,45.8-19h30.8
			c21.4,0,40.8-8.7,54.9-22.7c14-14,22.7-33.4,22.7-54.9c0-42.9-34.8-77.6-77.6-77.6h-8.8c-18.9,0-33.7-15.5-33.6-34.4
			c0-0.1,0-0.3,0-0.4c0-38.7-31.4-70.1-70.1-70.1H769h-38.6H390.3c-38.7,0-70.1,31.4-70.1,70.1c0,0.1,0,0.3,0,0.4
			c0.1,18.9-14.8,34.4-33.6,34.4h-8.8c-42.8,0-77.6,34.8-77.6,77.6c0,21.4,8.7,40.8,22.7,54.9c14,14,33.4,22.7,54.9,22.7h30.8
			c17.9,0,34.1,7.3,45.8,19c12,12,19.3,28.8,19,47.2c-0.7,35.5-30.8,63.5-66.3,63.5H177.5c-32.5,0-58.9,26.4-58.9,58.9
			c0,16.3,6.6,31,17.3,41.7c10.6,10.6,25.4,17.2,41.7,17.2H210c17.3,0,32.9,7,44.2,18.3c11.3,11.3,18.3,27,18.3,44.2
			c0,20.2-9.6,38.1-24.4,49.5h482.2H769h382.9c-14.8-11.4-24.4-29.4-24.4-49.5c0-17.3,7-32.9,18.3-44.2c11.3-11.3,27-18.3,44.2-18.3
			h32.5c16.3,0,31-6.6,41.7-17.2c10.7-10.7,17.3-25.4,17.3-41.7C1281.5,525.1,1255.1,498.7,1222.5,498.7z"/>
		<g>
			<path class="st2" d="M1250.7,838.4c-0.2,14.4-6.2,27.5-15.6,36.9c-9.7,9.7-23,15.6-37.8,15.6H202.7c-29.2,0-53-23.5-53.4-52.6
				H1250.7z"/>
			<path class="st3" d="M1243.8,863.9c4.3-7.5,6.8-16.2,6.9-25.5H149.3c0.1,9.3,2.6,17.9,6.9,25.5H1243.8z"/>
			<path class="st4" d="M1253.9,838.4H146.1c-30.4,0-55-24.6-55-55l0,0c0-30.4,24.6-55,55-55h1107.8c30.4,0,55,24.6,55,55l0,0
				C1308.9,813.8,1284.3,838.4,1253.9,838.4z"/>
		</g>
		<polygon class="st5" points="700.7,658 699.3,658 700.7,660.3 		"/>
		<g>
			<path class="st6" d="M853,383c25.7-46.7-11.7-69.4-17.7-138.9C830.3,186.3,764.7,140,710,140c-73.6,0-127.3,42-132.6,100
				c-6.4,69.4-52.3,54-23.3,117c22.3,48.4-59.1,65.3-45.9,110.6C540,577,686,564,721,564c111.8,0,156-35,172.7-96.5
				C906,422,827.3,429.7,853,383z"/>
			<g>
				<g>
					<path class="st6" d="M836.8,283.5c0-72.6-58.9-131.5-131.5-131.5h0c-72.6,0-131.5,58.9-131.5,131.5v29.9h263V283.5z"/>
				</g>
				<path class="st7" d="M734.5,447.3v-17.4h-58.9v17.4c0,9.3-7.5,16.8-16.8,16.8l0,0c-40.3,0-73,32.7-73,73v124.6h238.5V537.1
					c0-40.3-32.7-73-73-73h0C742,464,734.5,456.5,734.5,447.3z"/>
				<g>
					<path class="st7" d="M911.5,731.5L911.5,731.5c14.3-4.1,22.5-19,18.4-33.3l-63-217.8c-4.1-14.3-19-22.5-33.3-18.4l0,0
						c-14.3,4.1-22.5,19-18.4,33.3l63,217.8C882.4,727.4,897.3,735.6,911.5,731.5z"/>
					<path class="st7" d="M498.6,731.5L498.6,731.5c-14.3-4.1-22.5-19-18.4-33.3l63-217.8c4.1-14.3,19-22.5,33.3-18.4l0,0
						c14.3,4.1,22.5,19,18.4,33.3l-63,217.8C527.8,727.4,512.9,735.6,498.6,731.5z"/>
				</g>
				<g>
					<g>
						<path class="st8" d="M609.6,341.4h-19.2c-12,0-21.7-9.7-21.7-21.7v0c0-12,9.7-21.7,21.7-21.7h19.2c12,0,21.7,9.7,21.7,21.7v0
							C631.4,331.7,621.6,341.4,609.6,341.4z"/>
						<path class="st7" d="M590.5,330.3c-5.9,0-10.6-4.8-10.6-10.6c0-5.9,4.8-10.6,10.6-10.6h19.2c5.9,0,10.6,4.8,10.6,10.6
							c0,5.9-4.8,10.6-10.6,10.6H590.5z"/>
					</g>
					<g>
						<path class="st8" d="M800.5,341.4h19.2c12,0,21.7-9.7,21.7-21.7v0c0-12-9.7-21.7-21.7-21.7h-19.2c-12,0-21.7,9.7-21.7,21.7v0
							C778.8,331.7,788.5,341.4,800.5,341.4z"/>
						<path class="st7" d="M819.7,330.3c5.9,0,10.6-4.8,10.6-10.6c0-5.9-4.8-10.6-10.6-10.6h-19.2c-5.9,0-10.6,4.8-10.6,10.6
							c0,5.9,4.8,10.6,10.6,10.6H819.7z"/>
					</g>
				</g>
				<path class="st9" d="M705.1,408.1c6.5,0,12-4.2,14-10H691C693.1,403.9,698.6,408.1,705.1,408.1z"/>
				<g>
					<path class="st7" d="M571.2,761.7L571.2,761.7c-9.5,11.4-26.5,12.9-37.9,3.4l-44.9-37.5c-11.4-9.5-12.9-26.5-3.4-37.9l0,0
						c9.5-11.4,26.5-12.9,37.9-3.4l44.9,37.5C579.2,733.4,580.7,750.3,571.2,761.7z"/>
					<path class="st7" d="M836.2,761.7L836.2,761.7c9.5,11.4,26.5,12.9,37.9,3.4l44.9-37.5c11.4-9.5,12.9-26.5,3.4-37.9l0,0
						c-9.5-11.4-26.5-12.9-37.9-3.4l-44.9,37.5C828.2,733.4,826.7,750.3,836.2,761.7z"/>
				</g>
				<g>
					<g>
						<g>
							<path class="st10" d="M762.6,460.5c-3.1,0-5.9,2.1-6.7,5.1c-6.6,24.6-26.8,42.4-50.8,42.4c-23.9,0-44.2-17.9-50.8-42.4
								c-0.8-3-3.6-5.1-6.7-5.1h-65.5c-2.9,0-5.3,2.4-5.3,5.3v242.1h256.6V465.7c0-2.9-2.4-5.3-5.3-5.3H762.6z"/>
						</g>
					</g>
					<path class="st11" d="M833.4,707.8V467c-3.5,56.8-121.9,194.6-256.6,239.4v1.5H833.4z"/>
				</g>
				<g>
					<g>
						<g>
							<path class="st12" d="M708.8,666.3c0,0,108.6-76.6,157.1-48.9l-5.7,41.5l-149.3,40.6L708.8,666.3z"/>
							<path class="st12" d="M701.3,666.3c0,0-108.6-76.6-157.1-48.9l5.7,41.5l149.3,40.6L701.3,666.3z"/>
						</g>
						<g>
							<path class="st13" d="M701.8,807.5L560.3,769c-1.5-0.4-2.6-1.4-2.8-2.5L536.2,620c-0.4-2.5,2.8-4.2,5.9-3.2l159.2,49.5
								L701.8,807.5z"/>
							<path class="st13" d="M849.8,769l-141.5,38.5l0.5-141.2L868,616.8c3.2-1,6.3,0.7,5.9,3.2l-21.3,146.6
								C852.5,767.6,851.4,768.6,849.8,769z"/>
						</g>
						<path class="st14" d="M706.1,810.3H704c-4.1,0-7.5-2.8-7.5-6.2l-1.2-133.4c0-4.5,3.8-8.2,8.5-8.2h2.4c4.8,0,8.6,3.7,8.5,8.2
							l-1.2,133.4C713.6,807.5,710.3,810.3,706.1,810.3z"/>
					</g>
					<path class="st15" d="M631.1,644.4l-88.9-27.7c-3.2-1-6.3,0.7-5.9,3.2l17.5,120.2C597.4,710.2,619.8,674.9,631.1,644.4z"/>
				</g>
				<g>
					<path class="st8" d="M573.4,776h-23c-7.8,0-14.2-6.3-14.2-14.2v-46c0-7.8,6.3-14.2,14.2-14.2h23c13.1,0,23.8,10.6,23.8,23.8
						v26.7C597.2,765.3,586.5,776,573.4,776z"/>
					<path class="st8" d="M846.9,776h23c7.8,0,14.2-6.3,14.2-14.2v-46c0-7.8-6.3-14.2-14.2-14.2h-23c-13.1,0-23.8,10.6-23.8,23.8
						v26.7C823.1,765.3,833.7,776,846.9,776z"/>
				</g>
				<path class="st8" d="M705.1,448.5L705.1,448.5c-58.8,0-106.5-47.7-106.5-106.5v-59.3c0-58.8,47.7-106.5,106.5-106.5h0
					c58.8,0,106.5,47.7,106.5,106.5V342C811.6,400.8,763.9,448.5,705.1,448.5z"/>
				<g>
					<path class="st6" d="M645.5,334.5L645.5,334.5c-3.9,0-7-3.2-7-7v-7c0-3.9,3.2-7,7-7l0,0c3.9,0,7,3.2,7,7v7
						C652.6,331.4,649.4,334.5,645.5,334.5z"/>
					<path class="st6" d="M764.6,334.5L764.6,334.5c-3.9,0-7-3.2-7-7v-7c0-3.9,3.2-7,7-7l0,0c3.9,0,7,3.2,7,7v7
						C771.7,331.4,768.5,334.5,764.6,334.5z"/>
				</g>
				<g>
					<path class="st16" d="M644.9,381c0,7-5.7,12.6-12.6,12.6s-12.6-5.7-12.6-12.6c0-7,5.7-12.6,12.6-12.6S644.9,374,644.9,381z"/>
					<path class="st16" d="M790.5,381c0,7-5.7,12.6-12.6,12.6c-7,0-12.6-5.7-12.6-12.6c0-7,5.7-12.6,12.6-12.6
						C784.9,368.4,790.5,374,790.5,381z"/>
				</g>
				<path class="st6" d="M718.5,170.6c-4.4-0.5-8.9-0.8-13.4-0.8h0c-4.5,0-9,0.3-13.4,0.8c-56,6.6-99.4,54.2-99.4,112v2.1
					c13.8-0.8,28.4-3.5,43.1-8.2c29.8-9.7,54.3-26,69.6-44.6c15.3,18.6,39.8,34.9,69.6,44.6c14.7,4.8,29.3,7.4,43.1,8.2v-2.1
					C817.9,224.9,774.4,177.3,718.5,170.6z"/>
				<g>
					<g>
						<path class="st0" d="M721.9,322.9c-10.4-6.2-23.2-6.2-33.6,0l-4.4-7.3c13.1-7.8,29.3-7.8,42.3,0L721.9,322.9z"/>
					</g>
					<g>
						<g>
							<g>
								<path class="st0" d="M645.5,270c-25.8,0-46.7,20.9-46.7,46.7c0,25.8,20.9,46.7,46.7,46.7c25.8,0,46.7-20.9,46.7-46.7
									C692.2,290.9,671.3,270,645.5,270z M645.5,355c-21.2,0-38.3-17.2-38.3-38.3c0-21.2,17.2-38.4,38.3-38.4
									c21.2,0,38.4,17.2,38.4,38.4C683.9,337.8,666.7,355,645.5,355z"/>
							</g>
							<g>
								<path class="st0" d="M609.6,302.6h-14.8c-2.9,0-5.2-2.3-5.2-5.2v-5.3c0-2.9,2.3-5.2,5.2-5.2h14.8V302.6z"/>
							</g>
						</g>
						<g>
							<g>
								<path class="st0" d="M718,316.6c0,25.8,20.9,46.7,46.7,46.7c25.8,0,46.7-20.9,46.7-46.7c0-25.8-20.9-46.7-46.7-46.7
									C738.8,270,718,290.9,718,316.6z M726.3,316.6c0-21.2,17.2-38.4,38.3-38.4s38.4,17.2,38.4,38.4c0,21.2-17.2,38.3-38.4,38.3
									S726.3,337.8,726.3,316.6z"/>
							</g>
							<g>
								<path class="st0" d="M800.6,302.6h14.8c2.9,0,5.2-2.3,5.2-5.2v-5.3c0-2.9-2.3-5.2-5.2-5.2h-14.8V302.6z"/>
							</g>
						</g>
					</g>
				</g>
				<path class="st17" d="M705.1,408.4c-6.8,0-12.7-3.9-15.5-9.7c-0.6-1.2-1.7-2-3.1-2h-0.4c-2.5,0-4.1,2.6-3,4.8
					c3.9,8.2,12.3,13.9,22,13.9c9.7,0,18-5.7,22-13.9c1.1-2.2-0.6-4.8-3-4.8h-0.4c-1.3,0-2.5,0.8-3.1,2
					C717.8,404.4,711.9,408.4,705.1,408.4z"/>
			</g>
		</g>
		<path class="st16" d="M714.1,367.7c0-3.7-3.9-3.1-8.8-3.1c-4.8,0-8.8-0.5-8.8,3.1s3.9,6.6,8.8,6.6
			C710.2,374.4,714.1,371.4,714.1,367.7z"/>
		<path class="st0" d="M412.9,282.9L412.9,282.9L412.9,282.9c-8.6-3.3-15.5-10.1-18.7-18.7l0,0l0,0c-3.3,8.6-10.1,15.5-18.7,18.7
			l0,0l0,0c8.6,3.3,15.5,10.1,18.7,18.7v0l0,0C397.5,293.1,404.3,286.2,412.9,282.9z"/>
		<path class="st0" d="M1007.2,300.6L1007.2,300.6L1007.2,300.6c-8.6-3.3-15.5-10.1-18.7-18.7l0,0l0,0c-3.3,8.6-10.1,15.5-18.7,18.7
			l0,0l0,0c8.6,3.3,15.5,10.1,18.7,18.7v0l0,0C991.7,310.7,998.6,303.9,1007.2,300.6z"/>
		<path class="st0" d="M525.6,170L525.6,170L525.6,170c-6-2.3-10.8-7.1-13.1-13.1l0,0l0,0c-2.3,6-7.1,10.8-13.1,13.1l0,0l0,0
			c6,2.3,10.8,7.1,13.1,13.1v0l0,0C514.8,177.1,519.6,172.3,525.6,170z"/>
		<path class="st0" d="M506.6,457L506.6,457L506.6,457c-7.5-2.9-13.5-8.8-16.3-16.3l0,0l0,0c-2.9,7.5-8.8,13.5-16.3,16.3l0,0l0,0
			c7.5,2.9,13.5,8.8,16.3,16.3v0l0,0C493.1,465.8,499,459.9,506.6,457z"/>
		<path class="st0" d="M929.7,479.5L929.7,479.5L929.7,479.5c-7.5-2.9-13.5-8.8-16.3-16.3l0,0l0,0c-2.9,7.5-8.8,13.5-16.3,16.3l0,0
			l0,0c7.5,2.9,13.5,8.8,16.3,16.3v0l0,0C916.3,488.4,922.2,482.4,929.7,479.5z"/>
		<path class="st0" d="M923.3,179.2L923.3,179.2L923.3,179.2c-5.8-2.2-10.4-6.8-12.7-12.7l0,0l0,0c-2.2,5.8-6.8,10.4-12.7,12.7l0,0
			l0,0c5.8,2.2,10.4,6.8,12.7,12.7v0l0,0C912.9,186,917.5,181.4,923.3,179.2z"/>
		<g>
			<path class="st6" d="M660.1,297.5h-29.4c-1.6,0-3,1.3-3,3l0,0c0,1.6,1.3,3,3,3h29.4c1.6,0,3-1.3,3-3l0,0
				C663.1,298.8,661.7,297.5,660.1,297.5z"/>
			<path class="st6" d="M776.9,297.5h-29.4c-1.6,0-3,1.3-3,3l0,0c0,1.6,1.3,3,3,3h29.4c1.6,0,3-1.3,3-3l0,0
				C779.9,298.8,778.6,297.5,776.9,297.5z"/>
		</g>
		<g>
			<path class="st2" d="M1086.2,757.4H973.8c-5.5,0-10,4.5-10,10l0,0c0,5.5,4.5,10,10,10h112.4c5.5,0,10-4.5,10-10l0,0
				C1096.2,761.9,1091.8,757.4,1086.2,757.4z"/>
			<path class="st2" d="M436.7,774.1H324.2c-5.5,0-10,4.5-10,10l0,0c0,5.5,4.5,10,10,10h112.4c5.5,0,10-4.5,10-10l0,0
				C446.7,778.6,442.2,774.1,436.7,774.1z"/>
			<g>
				<g>
					<path class="st18" d="M377.3,672.4c-0.2-10.4-8.6-18.8-19-19l-15.6-0.4c-13.8-0.4-24.8-11.7-24.8-25.5l0,0
						c0-10.3,8.3-18.6,18.6-18.6h40.9c10,0,18.1-8.1,18.1-18.1v-5.8c0-9.9-8.1-18-18-18l0,0c-9.8,0-17.7-7.9-17.7-17.7l0,0
						c0-9.9,8.1-18,18-18l20.4,0c3.6,0,6.6,3,6.6,6.6v0.2c0,3.9-3.3,7-7.1,6.8c-5.1-0.3-11.9-0.6-16.9-0.8c-3.8-0.2-7,2.8-7,6.6l0,0
						c0,3.3,2.7,5.9,5.9,5.9h13.5c19.9,0,36,16.1,36,36v0c0,18.1-14.7,32.9-32.9,32.9h-44.9c-3.6,0-6.6,3-6.6,6.6l0,0
						c0,2.9,2.4,5.3,5.3,5.3h20.8c20.4,0,37,16.6,37,37L377.3,672.4z"/>
					<g>
						<g>
							<g>
								<path class="st10" d="M351.1,785.1h66c7.9,0,14.4-6.4,14.4-14.4v-95.9c0-2.6-2.1-4.7-4.7-4.7h-85.4c-2.6,0-4.7,2.1-4.7,4.7
									v95.9C336.8,778.7,343.2,785.1,351.1,785.1z"/>
							</g>
							<path class="st11" d="M426.8,670.2h-21c2.6,0,4.7,2.1,4.7,4.7v95.9c0,7.9-6.4,14.4-14.4,14.4h21c7.9,0,14.4-6.4,14.4-14.4
								v-95.9C431.5,672.3,429.4,670.2,426.8,670.2z"/>
							<g>
								<path class="st10" d="M300.4,724.9c0-18.6,15.1-33.8,33.8-33.8h28.3v67.5h-28.3C315.6,758.7,300.4,743.6,300.4,724.9z
									 M347,706.7h-12.8c-10.1,0-18.2,8.2-18.2,18.2c0,10.1,8.2,18.2,18.2,18.2H347V706.7z"/>
							</g>
						</g>
						<path class="st0" d="M403.3,712.1L403.3,712.1c-4-4.7-11-5.3-15.7-1.4l-3.2,2.7l-3.2-2.7c-4.7-4-11.8-3.3-15.7,1.4l0,0
							c-4,4.7-3.3,11.8,1.4,15.7l0.2,0.1l17.4,14.6l17.4-14.6l0.2-0.1C406.7,723.8,407.3,716.8,403.3,712.1z"/>
					</g>
				</g>
				<g>
					<g>
						<g>
							<g>
								<g>
									<path class="st19" d="M1030.3,540.4h-25.3c-16.7,0-30.3-13.6-30.3-30.3l0,0h25.3C1016.7,510.1,1030.3,523.6,1030.3,540.4
										L1030.3,540.4z"/>
									<path class="st20" d="M1030.9,540.4h25.3c16.7,0,30.3-13.6,30.3-30.3l0,0h-25.3C1044.4,510.1,1030.9,523.6,1030.9,540.4
										L1030.9,540.4z"/>
								</g>
								<g>
									<path class="st19" d="M1031.5,581.4h-25.3c-16.7,0-30.3-13.6-30.3-30.3l0,0h25.3C1018,551.2,1031.5,564.7,1031.5,581.4
										L1031.5,581.4z"/>
									<path class="st20" d="M1031.5,581.4h25.3c16.7,0,30.3-13.6,30.3-30.3l0,0h-25.3C1045.1,551.2,1031.5,564.7,1031.5,581.4
										L1031.5,581.4z"/>
								</g>
								<g>
									<path class="st20" d="M1030.9,622.5h-25.3c-16.7,0-30.3-13.6-30.3-30.3v0h25.3C1017.4,592.3,1030.9,605.8,1030.9,622.5
										L1030.9,622.5z"/>
									<path class="st19" d="M1032.6,622.5h25.3c16.7,0,30.3-13.6,30.3-30.3v0h-25.3C1046.2,592.3,1032.6,605.8,1032.6,622.5
										L1032.6,622.5z"/>
								</g>
							</g>
							<path class="st20" d="M1048.6,478c0,20.2-17.6,36.6-17.6,36.6s-17.6-16.4-17.6-36.6c0-20.2,17.6-36.6,17.6-36.6
								S1048.6,457.8,1048.6,478z"/>
							<path class="st20" d="M1031.3,661.3L1031.3,661.3c1.5,0,2.6-1.9,2.6-4.2V503.3c0-2.3-1.2-4.2-2.6-4.2l0,0
								c-1.5,0-2.6,1.9-2.6,4.2v153.9C1028.7,659.5,1029.9,661.3,1031.3,661.3z"/>
						</g>
						<path class="st10" d="M1063.6,770.8h-65.3c-5.8,0-10.7-4.4-11.3-10.2l-10.5-104.7h109l-10.5,104.7
							C1074.3,766.4,1069.5,770.8,1063.6,770.8z"/>
						<polygon class="st11" points="1083.5,675.4 1085.5,655.9 976.5,655.9 978.4,675.4 						"/>
						<path class="st17" d="M1095.5,646.9v23.5h-40.7c1.3-4.9,2.5-9.7,3.5-14.4c0.6-3.1,1.2-6.1,1.7-9.1H1095.5z"/>
						<path class="st11" d="M1095.5,649.2v21.2H1084l-9.1,90.2c-0.6,5.8-5.5,10.2-11.3,10.2h-65.3c-5.8,0-10.7-4.4-11.3-10.2
							l-0.2-2.3c38.8-13.4,58.3-52,68-87.9c1.3-4.9,2.5-9.7,3.5-14.4c0.6-3.1,1.2-6.1,1.7-9.1h34.1L1095.5,649.2z"/>
						<rect x="966.5" y="646.9" class="st17" width="129" height="23.5"/>
					</g>
				</g>
			</g>
		</g>
	</g>
</g>
</svg>
