<svg height="512" viewBox="0 0 58 58" width="512" fill="#393e46" xmlns="http://www.w3.org/2000/svg"><g id="Page-1" fill="none" fill-rule="evenodd"><g id="081---Retail-Studies"><path id="Path" d="m54 12h2c1.1032019.0032948 1.9967052.8967981 2 2v39c-.0032948 1.1032019-.8967981 1.9967052-2 2h-22v1c-.0032948 1.1032019-.8967981 1.9967052-2 2h-6c-1.1032019-.0032948-1.9967052-.8967981-2-2v-1h-22c-1.10320187-.0032948-1.9967052-.8967981-2-2v-39c.0032948-1.1032019.89679813-1.9967052 2-2z" fill="#cb8252"/><path id="Path" d="m54 10v35c-.0032948 1.1032019-.8967981 1.9967052-2 2h-20c-1.6568542 0-3 1.3431458-3 3v-42h23c1.1032019.0032948 1.9967052.89679813 2 2z" fill="#ecf0f1"/><path id="Path" d="m54 45v4c-.0032948 1.1032019-.8967981 1.9967052-2 2h-20c-1.2935057-.0027327-2.4409648.8295791-2.84 2.06-.1096656.301099-.1638743.6195751-.16.94 0-1.6568542-1.3431458-3-3-3h-20c-1.10320187-.0032948-1.9967052-.8967981-2-2v-4c.0032948 1.1032019.89679813 1.9967052 2 2h20c1.6568542 0 3 1.3431458 3 3 0-1.6568542 1.3431458-3 3-3h20c1.1032019-.0032948 1.9967052-.8967981 2-2z" fill="#bdc3c7"/><path id="Path" d="m29 8v42c0-1.6568542-1.3431458-3-3-3h-20c-1.10320187-.0032948-1.9967052-.8967981-2-2v-35c.0032948-1.10320187.89679813-1.9967052 2-2z" fill="#d1d4d1"/><path id="Path" d="m18 0h22c1.1045695 0 2 .8954305 2 2v3h-26v-3c0-1.1045695.8954305-2 2-2z" fill="#c03a2b"/><path id="Path" d="m49 10h-8l-5-5h6z" fill="#e64c3c"/><path id="Path" d="m49 10v2c-.0054966 2.2068582-1.7931418 3.9945034-4 4-1.0612728.0013291-2.0794609-.4196715-2.8298947-1.1701053s-1.1714344-1.7686219-1.1701053-2.8298947l-.0000031-2z" fill="#c03a2b"/><path id="Path" d="m41 10h-8l-1-5h4z" fill="#fff"/><path id="Path" d="m41 10v2c0 2.209139-1.790861 4-4 4s-4-1.790861-4-4v-2z" fill="#ecf0f1"/><path id="Path" d="m33 10h-8l1-5h6z" fill="#e64c3c"/><path id="Path" d="m33 10v2c0 2.209139-1.790861 4-4 4s-4-1.790861-4-4v-2z" fill="#c03a2b"/><path id="Path" d="m26 5-1 5h-8l5-5z" fill="#fff"/><path id="Path" d="m25 10v2c0 2.209139-1.790861 4-4 4s-4-1.790861-4-4v-2z" fill="#ecf0f1"/><path id="Path" d="m17.000005 10-.000005 2c.0022588 1.4299033-.7600686 2.751921-1.9987692 3.4662384-1.2387006.7143173-2.7647636.711938-4.0012308-.0062384-.3016023-.1749475-.5803887-.3865565-.83-.63-.74763915-.7523311-1.16810582-1.7693573-1.17-2.83v-2z" fill="#c03a2b"/><path id="Path" d="m22 5-5 5h-8l7-5z" fill="#e64c3c"/><path id="Path" d="m47 15.46v22.54c-.0032948 1.1032019-.8967981 1.9967052-2 2h-32c-1.1032019-.0032948-1.9967052-.8967981-2-2v-22.54c1.2364672.7181764 2.7625302.7205557 4.0012308.0062384 1.2387006-.7143174 2.001028-2.0363351 1.9987692-3.4662384 0 2.209139 1.790861 4 4 4s4-1.790861 4-4c.0000001 2.209139 1.790861 3.9999999 4 3.9999999s3.9999999-1.7908609 4-3.9999999c0 2.209139 1.790861 4 4 4s4-1.790861 4-4c-.0022588 1.4299033.7600686 2.751921 1.9987692 3.4662384 1.2387006.7143173 2.7647636.711938 4.0012308-.0062384z" fill="#f5efca"/><path id="Path" d="m18 21h6c1.1045695 0 2 .8954305 2 2v17h-10v-17c0-1.1045695.8954305-2 2-2z" fill="#cb8252"/><rect id="Rectangle" fill="#84b5cb" height="10" rx="2" width="12" x="30" y="21"/><circle id="Oval" cx="20" cy="31" fill="#95a5a5" r="1"/><path id="Path" d="m34 28c-.4043959-.0000863-.7689341-.2437275-.923678-.6173454-.1547439-.373618-.0692299-.8036603.216678-1.0896546l2-2c.3923789-.3789722 1.0160848-.3735524 1.4018186.0121814s.3911536 1.0094397.0121814 1.4018186l-2 2c-.1874927.1875494-.4418052.2929434-.707.293z" fill="#9fc9d3"/></g></g></svg>