<svg id="Layer_1" enable-background="new 0 0 128 128" height="512" viewBox="0 0 128 128" width="512" xmlns="http://www.w3.org/2000/svg"><path d="m116.707 63.19h-15.047c.051-.204.086-.414.086-.633v-38.096c0-1.452-1.181-2.633-2.633-2.633h-28.976c-.219 0-.429.035-.633.085v-7.789c0-1.899-1.545-3.444-3.444-3.444h-8.773c-1.899 0-3.444 1.545-3.444 3.444v8.031c-.441-.205-.927-.328-1.444-.328h-8.773c-.517 0-1.004.123-1.444.328v-4.688c0-1.898-1.545-3.443-3.444-3.443h-8.773c-1.899 0-3.444 1.545-3.444 3.443v44.277c0 .517.123 1.004.328 1.444h-11.556c-2.121 0-3.846 1.726-3.846 3.846 0 2.121 1.726 3.847 3.846 3.847h47.716c-.494 3.878-3.808 6.889-7.818 6.889h-10.055c-8.033 0-14.567 6.535-14.567 14.567s6.535 14.567 14.567 14.567h12.364v.179c0 7.849 6.385 14.234 14.234 14.234h20.472c7.849 0 14.233-6.386 14.233-14.234v-2.358c0-7.849-6.385-14.234-14.233-14.234h-20.472c-7.849 0-14.234 6.386-14.234 14.234v.18h-12.364c-6.93 0-12.567-5.638-12.567-12.567s5.638-12.567 12.567-12.567h10.054c5.115 0 9.335-3.904 9.838-8.889h51.679c2.121 0 3.847-1.726 3.847-3.847 0-2.119-1.726-3.845-3.847-3.845z" fill="#e6e7e8"/><path d="m112.707 60.19h-101.414c-1.572 0-2.846 1.274-2.846 2.846s1.274 2.846 2.846 2.846h56.863 16.304 28.247c1.572 0 2.846-1.274 2.846-2.846 0-1.571-1.274-2.846-2.846-2.846z" fill="#d4fbff"/><path d="m95.112 18.828h-28.975c-.902 0-1.633.731-1.633 1.633v38.097c0 .902.731 1.633 1.633 1.633h28.976c.902 0 1.633-.731 1.633-1.633v-38.098c-.001-.901-.732-1.632-1.634-1.632z" fill="#6dc9f7"/><path d="m77.448 25.591h13.17v9.677h-13.17z" fill="#fff"/><path d="m62.06 7.681h-8.773c-1.35 0-2.444 1.094-2.444 2.444v47.621c0 1.35 1.094 2.444 2.444 2.444h8.773c1.35 0 2.444-1.094 2.444-2.444v-47.621c0-1.35-1.094-2.444-2.444-2.444z" fill="#ffd7e5"/><path d="m34.738 11.025h-8.773c-1.35 0-2.444 1.094-2.444 2.444v44.277c0 1.35 1.094 2.444 2.444 2.444h8.773c1.35 0 2.444-1.094 2.444-2.444v-44.277c0-1.35-1.095-2.444-2.444-2.444z" fill="#fa759e"/><path d="m26.521 57.746v-44.277c0-1.35 1.094-2.444 2.444-2.444h-3c-1.35 0-2.444 1.094-2.444 2.444v44.277c0 1.35 1.094 2.444 2.444 2.444h3c-1.35 0-2.444-1.094-2.444-2.444z" fill="#fff"/><path d="m48.399 18.828h-8.773c-1.35 0-2.444 1.094-2.444 2.444v36.474c0 1.35 1.094 2.444 2.444 2.444h8.773c1.35 0 2.444-1.094 2.444-2.444v-36.474c0-1.35-1.094-2.444-2.444-2.444z" fill="#0089ef"/><path d="m101.439 100.727v2.359c0 7.309-5.925 13.234-13.234 13.234h-20.471c-7.309 0-13.234-5.925-13.234-13.234v-2.359c0-7.309 5.925-13.234 13.234-13.234h20.471c7.309 0 13.234 5.925 13.234 13.234z" fill="#ffd7e5"/><path d="m70.968 105.619h-5.625c-1.605 0-2.906-1.301-2.906-2.906v-1.376c0-1.605 1.301-2.906 2.906-2.906h5.625c1.605 0 2.906 1.301 2.906 2.906v1.376c0 1.605-1.301 2.906-2.906 2.906z" fill="#0089ef"/><g fill="#3a2c60"><path d="m112.707 59.19h-15.047c.051-.204.086-.414.086-.633v-38.096c0-1.452-1.181-2.633-2.633-2.633h-28.976c-.219 0-.429.035-.633.085v-7.789c0-1.899-1.545-3.444-3.444-3.444h-8.773c-1.899 0-3.444 1.545-3.444 3.444v8.031c-.441-.205-.927-.328-1.444-.328h-8.772c-.517 0-1.004.123-1.444.328v-4.688c0-1.899-1.545-3.444-3.444-3.444h-8.772c-1.899 0-3.444 1.545-3.444 3.444v44.277c0 .517.123 1.004.328 1.444h-11.558c-2.121 0-3.846 1.726-3.846 3.846 0 2.121 1.726 3.847 3.846 3.847h47.716c-.494 3.878-3.808 6.889-7.818 6.889h-10.056c-8.032 0-14.567 6.535-14.567 14.567s6.535 14.567 14.567 14.567h12.365v.179c0 7.849 6.385 14.234 14.234 14.234h20.471c7.849 0 14.234-6.386 14.234-14.234v-2.358c0-7.849-6.386-14.234-14.234-14.234h-20.471c-7.849 0-14.234 6.386-14.234 14.234v.18h-12.365c-6.929 0-12.567-5.638-12.567-12.567s5.638-12.567 12.567-12.567h10.055c5.115 0 9.335-3.904 9.838-8.889h8.127c.553 0 1-.447 1-1s-.447-1-1-1h-57.862c-1.018 0-1.846-.828-1.846-1.847 0-1.018.828-1.846 1.846-1.846h14.672 8.772 4.889 8.772 4.888 8.773 4.077 28.976 17.595c1.018 0 1.846.828 1.846 1.846 0 1.019-.828 1.847-1.846 1.847h-26.247c-.553 0-1 .447-1 1s.447 1 1 1h26.247c2.12 0 3.846-1.726 3.846-3.847 0-2.119-1.726-3.845-3.846-3.845zm-57.206 43.895v-.179h5.956c.103 2.063 1.799 3.713 3.887 3.713h5.625c.696 0 1.34-.198 1.906-.518v9.218h-5.14c-6.746 0-12.234-5.488-12.234-12.234zm17.373-.372c0 1.051-.855 1.906-1.906 1.906h-5.625c-1.051 0-1.906-.855-1.906-1.906v-1.376c0-1.051.855-1.906 1.906-1.906h5.625c1.051 0 1.906.855 1.906 1.906zm27.566-1.986v2.358c0 6.746-5.488 12.234-12.234 12.234h-13.332v-12.606-1.376-12.845h13.331c6.746 0 12.235 5.489 12.235 12.235zm-44.939 0c0-6.746 5.488-12.234 12.234-12.234h5.14v9.456c-.566-.32-1.211-.518-1.906-.518h-5.625c-2.006 0-3.645 1.526-3.863 3.476h-5.98zm-30.98-81.048h11.661v1.593 30.266h-11.661zm13.661 7.802h11.661v24.056h-11.661zm13.661-6.209v-4.938h11.661v4.127 31.076h-11.661zm1.444-12.591h8.773c.796 0 1.444.647 1.444 1.444v4.209h-11.661v-4.209c0-.797.648-1.444 1.444-1.444zm-13.661 11.147h8.772c.796 0 1.444.647 1.444 1.443v4.21h-11.66v-4.21c0-.795.648-1.443 1.444-1.443zm-13.661-7.804h8.772c.796 0 1.444.647 1.444 1.444v4.21h-11.66v-4.21c0-.796.648-1.444 1.444-1.444zm0 47.166c-.796 0-1.444-.647-1.444-1.444v-4.209h11.661v4.209c0 .797-.648 1.444-1.444 1.444zm13.661 0c-.796 0-1.444-.647-1.444-1.444v-4.209h11.661v4.209c0 .797-.648 1.444-1.444 1.444zm13.661 0c-.796 0-1.444-.647-1.444-1.444v-4.209h11.661v4.209c0 .797-.648 1.444-1.444 1.444zm12.217-.632v-.812-37.285c0-.349.284-.633.633-.633h3.425v39.362h-3.425c-.349 0-.633-.284-.633-.632zm6.058.632v-39.362h23.551c.349 0 .633.284.633.633v38.097c0 .349-.284.633-.633.633h-23.551z"/><path d="m73.874 64.883c-.553 0-1 .447-1 1s.447 1 1 1h8.127c.553 0 1-.447 1-1s-.447-1-1-1z"/></g></svg>