<svg xmlns="http://www.w3.org/2000/svg" data-name="Camada 1" viewBox="0 0 100 100"><path d="M52.63346,24.45,35.6665,7.5H17.23307A17.25617,17.25617,0,0,0,0,24.73338V75.26662A17.25617,17.25617,0,0,0,17.23307,92.5H82.76693A17.25617,17.25617,0,0,0,100,75.26662V24.45ZM90,75.26662A7.22666,7.22666,0,0,1,82.76693,82.5H17.23307A7.22666,7.22666,0,0,1,10,75.26662V24.73338A7.22666,7.22666,0,0,1,17.23307,17.5H31.5332L48.48307,34.45H90Z"/><polygon points="46.077 40.7 46.077 53.825 32.952 53.825 32.952 63.825 46.077 63.825 46.077 76.95 56.077 76.95 56.077 63.825 69.202 63.825 69.202 53.825 56.077 53.825 56.077 40.7 46.077 40.7"/></svg>