<svg id="Layer_1" enable-background="new 0 0 128 128" height="512" viewBox="0 0 128 128" width="512" xmlns="http://www.w3.org/2000/svg"><path d="m112.284 46.947c-2.055-15.821-15.499-27.667-31.543-27.667-10.241 0-19.8 4.905-25.785 13.176-3.288-2.488-7.311-3.848-11.443-3.848-9.529 0-17.45 6.922-18.788 16.249-10.218.291-18.44 8.694-18.44 18.981 0 1.571.192 3.152.572 4.698 2.153 8.767 10.188 14.891 19.541 14.891h4.399v22.333c0 1.654 1.346 3 3 3h21.522c3.067 0 6.019.928 8.535 2.683l1.573 1.098c.172.12.372.18.572.18.192 0 .386-.056.554-.167l1.958-1.301c2.453-1.63 5.308-2.492 8.255-2.492h21.437c1.654 0 3-1.346 3-3v-22.334h5.937c5.979 0 11.567-2.721 14.946-7.278 2.375-3.204 3.63-7.029 3.63-11.062 0-8.348-5.489-15.712-13.432-18.14z" fill="#e6e7e8"/><path d="m107.37 43.725c-1.68-15.432-14.749-27.445-30.629-27.445-10.653 0-20.043 5.407-25.577 13.625-3.14-2.674-7.203-4.297-11.651-4.297-9.351 0-17.03 7.135-17.902 16.258-.113-.002-.223-.017-.337-.017-9.935 0-17.99 8.054-17.99 17.99 0 1.519.188 3.015.543 4.459 2.066 8.412 9.908 14.129 18.57 14.129h5.399v-30.019c0-1.105.895-2 2-2h21.399c3.428 0 6.765 1.107 9.513 3.155l1.292.963 1.877-1.297c2.66-1.837 5.815-2.821 9.048-2.821h21.279c1.104 0 2 .895 2 2v30.019h6.936c5.519 0 10.856-2.44 14.143-6.873 2.16-2.913 3.434-6.516 3.434-10.466-.001-8.327-5.666-15.313-13.347-17.363z" fill="#6dc9f7"/><path d="m39.021 29.133c4.021 0 7.734 1.298 10.759 3.489.651.472 1.544.309 2.024-.336 5.741-7.699 14.917-12.685 25.259-12.685 14.003 0 25.86 9.145 29.952 21.784-2.678-14.288-15.207-25.105-30.274-25.105-10.653 0-20.043 5.406-25.577 13.625-3.14-2.674-7.203-4.297-11.651-4.297-9.237 0-16.831 6.967-17.855 15.931 2.482-7.214 9.307-12.406 17.363-12.406z" fill="#fff"/><path d="m94.204 103.76h-21.437c-3.134 0-6.198.925-8.809 2.659l-1.958 1.301-1.574-1.098c-2.671-1.863-5.85-2.862-9.107-2.862h-21.522c-1.105 0-2-.895-2-2v-53.352c0-1.105.895-2 2-2h21.399c3.428 0 6.765 1.107 9.513 3.155l1.291.963 1.877-1.297c2.66-1.837 5.816-2.821 9.048-2.821h21.279c1.105 0 2 .895 2 2v53.351c0 1.105-.896 2.001-2 2.001z" fill="#fa759e"/><path d="m91.562 60.639-3.473-2.154-3.472 2.154v-14.231h6.945z" fill="#ffd7e5"/><g fill="#3a2c60"><path d="m108.284 42.947c-2.056-15.821-15.499-27.667-31.543-27.667-10.241 0-19.8 4.905-25.785 13.176-3.288-2.488-7.311-3.848-11.443-3.848-9.529 0-17.45 6.922-18.788 16.248-10.218.291-18.44 8.694-18.44 18.982 0 1.571.192 3.152.572 4.698 2.153 8.767 10.189 14.891 19.541 14.891h4.399v22.333c0 1.654 1.346 3 3 3h21.522c3.067 0 6.019.928 8.535 2.683l1.573 1.098c.172.12.372.18.572.18.192 0 .386-.056.554-.167l1.958-1.301c2.453-1.63 5.308-2.492 8.255-2.492h21.437c1.654 0 3-1.346 3-3v-3.849c0-.552-.447-1-1-1s-1 .448-1 1v3.849c0 .551-.448 1-1 1h-21.436c-3.342 0-6.579.978-9.362 2.826l-.405.268v-54.804l1.445-.998c2.504-1.73 5.436-2.645 8.479-2.645h10.692v13.231c0 .363.196.697.514.874.151.084.319.126.486.126.183 0 .366-.05.527-.15l2.945-1.827 2.944 1.827c.308.191.696.201 1.014.024.317-.177.514-.511.514-.874v-13.231h1.642c.552 0 1 .449 1 1v35.332c0 .552.447 1 1 1s1-.448 1-1v-4.312h5.937c5.979 0 11.567-2.721 14.946-7.278 2.375-3.205 3.63-7.029 3.63-11.062.001-8.349-5.488-15.713-13.431-18.141zm-56.965 59.813h-21.522c-.552 0-1-.449-1-1v-53.352c0-.551.448-1 1-1h21.398c3.19 0 6.357 1.05 8.916 2.958l.889.662v54.774l-.001-.001c-2.854-1.989-6.201-3.041-9.68-3.041zm39.242-43.918-1.944-1.207c-.322-.2-.732-.2-1.055 0l-1.945 1.207v-11.434h4.944zm25.917 12.116c-3.003 4.051-7.989 6.469-13.339 6.469h-5.937v-29.019c0-1.654-1.346-3-3-3h-21.277c-3.451 0-6.776 1.037-9.616 2.999l-1.286.889-.716-.534c-2.902-2.163-6.493-3.354-10.111-3.354h-21.399c-1.654 0-3 1.346-3 3v29.019h-4.399c-8.429 0-15.666-5.497-17.6-13.368-.341-1.39-.514-2.81-.514-4.221 0-9.368 7.621-16.99 16.989-16.99l.109.006c.07.005.141.01.211.011.54.029.964-.385 1.013-.905.837-8.752 8.105-15.353 16.906-15.353 4.023 0 7.932 1.441 11.003 4.058.216.185.501.269.784.229.282-.039.534-.196.693-.432 5.56-8.255 14.811-13.184 24.748-13.184 15.247 0 27.987 11.416 29.635 26.553.045.41.337.751.736.858 7.421 1.981 12.604 8.723 12.604 16.396.001 3.603-1.118 7.016-3.237 9.873z"/><path d="m96.203 87.064c-.553 0-1 .448-1 1v6.037c0 .552.447 1 1 1s1-.448 1-1v-6.037c0-.552-.447-1-1-1z"/><path d="m70.266 57.527h8.765c.553 0 1-.448 1-1s-.447-1-1-1h-8.765c-.553 0-1 .448-1 1s.447 1 1 1z"/><path d="m87.795 64.505h-17.529c-.553 0-1 .448-1 1s.447 1 1 1h17.529c.553 0 1-.448 1-1s-.447-1-1-1z"/><path d="m87.795 73.484h-17.529c-.553 0-1 .448-1 1s.447 1 1 1h17.529c.553 0 1-.448 1-1s-.447-1-1-1z"/><path d="m87.795 82.462h-17.529c-.553 0-1 .448-1 1s.447 1 1 1h17.529c.553 0 1-.448 1-1s-.447-1-1-1z"/><path d="m87.795 91.44h-17.529c-.553 0-1 .448-1 1s.447 1 1 1h17.529c.553 0 1-.448 1-1s-.447-1-1-1z"/><path d="m54.102 55.527h-17.53c-.553 0-1 .448-1 1s.447 1 1 1h17.529c.553 0 1-.448 1-1s-.447-1-.999-1z"/><path d="m54.102 64.505h-17.53c-.553 0-1 .448-1 1s.447 1 1 1h17.529c.553 0 1-.448 1-1s-.447-1-.999-1z"/><path d="m54.102 73.484h-17.53c-.553 0-1 .448-1 1s.447 1 1 1h17.529c.553 0 1-.448 1-1s-.447-1-.999-1z"/><path d="m54.102 82.462h-17.53c-.553 0-1 .448-1 1s.447 1 1 1h17.529c.553 0 1-.448 1-1s-.447-1-.999-1z"/><path d="m54.102 91.44h-17.53c-.553 0-1 .448-1 1s.447 1 1 1h17.529c.553 0 1-.448 1-1s-.447-1-.999-1z"/></g></svg>