<svg xmlns="http://www.w3.org/2000/svg" fill="#393e46" width="24" height="24" viewBox="0 0 6.35 6.35"><path d="m 3.6938316,291.97394 c -0.4310732,0.006 -0.7823814,0.36291 -0.7823814,0.79375 v 0.13539 H 2.6458334 c -1.151861,0 -1.79774534,0.65164 -2.09134527,1.27434 -0.29359993,0.62271 -0.28990479,1.23507 -0.28990479,1.23507 a 0.2646098,0.2646098 0 0 0 0.4650879,0.1726 c 0,0 0.71614486,-0.82992 1.91616216,-0.82992 h 0.2656168 v 0.12764 c 0,0.61903 0.71808,1.00508 1.2335166,0.66146 l 1.5875001,-1.05834 c 0.4636622,-0.30911 0.4636616,-1.01226 0,-1.32136 l -1.5875001,-1.05834 c -0.1345652,-0.0897 -0.2922878,-0.1345 -0.4511352,-0.13229 z m 0.00723,0.52917 c 0.054829,-7.6e-4 0.1071033,0.0146 0.1503786,0.0434 l 1.5875,1.05833 c 0.1649924,0.10999 0.1649926,0.3308 0,0.4408 l -1.5875,1.05833 c -0.1880359,0.12536 -0.4108278,0.005 -0.4108278,-0.22117 v -0.39223 A 0.2646098,0.2646098 0 0 0 3.1760335,294.226 H 2.6458334 c -0.7405265,0 -1.3164282,0.25991 -1.7156576,0.51935 0.0333469,-0.11692 0.044598,-0.21858 0.1028361,-0.3421 0.2355667,-0.49962 0.6480157,-0.971 1.6128215,-0.971 h 0.5302001 a 0.2646098,0.2646098 0 0 0 0.2645834,-0.26458 v -0.39998 c 0,-0.1478 0.1129559,-0.26254 0.2604492,-0.26458 z" color="#000" font-family="sans-serif" font-weight="400" overflow="visible" transform="translate(0 -290.65)" style="line-height:normal;font-variant-ligatures:normal;font-variant-position:normal;font-variant-caps:normal;font-variant-numeric:normal;font-variant-alternates:normal;font-feature-settings:normal;text-indent:0;text-align:start;text-decoration-line:none;text-decoration-style:solid;text-decoration-color:#000;text-transform:none;text-orientation:mixed;shape-padding:0;isolation:auto;mix-blend-mode:normal"/></svg>