<svg fill="#393e46" xmlns="http://www.w3.org/2000/svg" enable-background="new 0 0 48 48" viewBox="0 0 48 48"><path d="M40,10.5H8c-3.03,0-5.5,2.47-5.5,5.5v6v4v6c0,3.03,2.47,5.5,5.5,5.5h32c3.03,0,5.5-2.47,5.5-5.5v-6v-4v-6
		C45.5,12.97,43.03,10.5,40,10.5z M42.5,22v4v6c0,1.38-1.12,2.5-2.5,2.5H8c-1.38,0-2.5-1.12-2.5-2.5v-6v-4v-6
		c0-1.38,1.12-2.5,2.5-2.5h32c1.38,0,2.5,1.12,2.5,2.5V22z"/><path d="M32.67,22.66l-12-6c-0.46-0.23-1.02-0.21-1.46,0.07C18.77,17,18.5,17.48,18.5,18v12c0,0.52,0.27,1,0.71,1.28
		c0.24,0.15,0.51,0.22,0.79,0.22c0.23,0,0.46-0.05,0.67-0.16l12-6c0.51-0.25,0.83-0.77,0.83-1.34S33.18,22.91,32.67,22.66z
		 M21.5,27.57v-7.15L28.65,24L21.5,27.57z"/></svg>