<svg width="315.35" height="305.59" xmlns="http://www.w3.org/2000/svg" xmlns:xlink="http://www.w3.org/1999/xlink" class="illustration styles_illustrationTablet__1DWOa" data-name="Layer 1">
 <defs>
  <linearGradient y2="1.92274" x2="0.50618" y1="-0.19584" x1="0.49696" id="linear-gradient">
   <stop stop-opacity="0" offset="0"/>
   <stop offset="0.95"/>
  </linearGradient>
  <linearGradient y2="-0.1769" x2="0.41181" y1="0.92709" x1="0.61153" id="linear-gradient-2">
   <stop stop-opacity="0" offset="0"/>
   <stop offset="0.99"/>
  </linearGradient>
  <linearGradient xlink:href="#linear-gradient" y2="143.58" x2="254.06" y1="215.77" x1="256" id="linear-gradient-3"/>
  <linearGradient xlink:href="#linear-gradient-2" y2="81.77" x2="159.46" y1="238.45" x1="154.93" id="linear-gradient-4"/>
 </defs>
 <title>404 not found 2</title>
 <g>
  <title>Layer 1</title>
  <path opacity="0.7" id="svg_1" fill="#f8e8a0" d="m98.25284,209.09712c20.68,9.09 44.07,8.95 66.66,8.65c11.85,-0.15 24.11,-0.39 34.9,-5.3c15,-6.83 24.74,-21.49 37.9,-31.41c15.11,-11.41 34.45,-16.33 49.1,-28.32a63.39,63.39 0 0 0 1.63,-96.76c-7.75,-6.78 -17,-11.57 -26.17,-16.28l-46.05,-23.7c-10.79,-5.55 -21.86,-11.19 -33.9,-12.7c-10.16,-1.27 -20.44,0.49 -30.37,2.76c-28.3,6.4 -56.38,17.43 -77.14,37.62c-17.86,17.4 -29.52,40.77 -49.06,56.26c-5,3.95 -10.54,7.44 -14.18,12.66c-13.1,18.81 0.17,42.84 17.19,52.48c23.57,13.34 44.78,33.19 69.49,44.04z"/>
  <ellipse id="svg_2" fill="#da0037" ry="19.48" rx="157.68" cy="286.11" cx="157.68"/>
  <ellipse id="svg_3" fill="url(#linear-gradient)" ry="19.48" rx="157.68" cy="286.11" cx="152.68003"/>
  <path id="svg_4" fill="#eea886" d="m71.3,95.8a26.4,26.4 0 0 0 -20.18,-4a7.65,7.65 0 0 0 -3.48,1.49c-2.37,2 -2,5.72 -2.63,8.78c-0.77,3.77 -3.3,7 -4.21,10.72a24.15,24.15 0 0 0 -0.09,8.48a139.76,139.76 0 0 0 7.91,32.42l-11,144.91s11.25,1.82 34.07,3.64l2.42,-138l-2.81,-68.44z"/>
  <polygon id="svg_5" fill="url(#linear-gradient-2)" points="58.79 180.31 73.36 239.23 73.36 154.25 66.88 134.99 58.79 180.31"/>
  <path id="svg_6" fill="#eea886" d="m249.32,97.04a26.42,26.42 0 0 1 20.18,-3.92a7.8,7.8 0 0 1 3.49,1.49c2.36,2 2,5.72 2.62,8.79c0.78,3.77 3.31,7 4.22,10.72a23.86,23.86 0 0 1 0.08,8.47a139.12,139.12 0 0 1 -7.9,32.42l10.95,142.89s-12.25,2.06 -34.14,4.13l-2.35,-136.48l2.85,-68.51z"/>
  <polygon id="svg_7" fill="url(#linear-gradient-3)" points="263.7 176.1 258.53 202.65 247.52 226.6 246.55 174.48 263.7 176.1"/>
  <rect id="svg_8" fill="#68e1fd" rx="8.37" height="133.37" width="211.71" y="48.4" x="52.64"/>
  <rect id="svg_9" fill="url(#linear-gradient-4)" rx="8.37" height="133.37" width="211.71" y="48.4" x="52.64"/>
  <rect id="svg_10" fill="#da0037" rx="8.37" height="133.37" width="211.71" y="48.04997" x="51.92572"/>
  <path id="svg_11" fill="#fff" d="m71.39,98.65c3.37,-3.74 3.37,-3.74 7.18,-8.22l16.23,-19a75.55,75.55 0 0 0 7,-8.9l15.33,0a109.89,109.89 0 0 0 -0.59,12.41l0,24.31l2.17,0a52,52 0 0 0 7.4,-0.6l0,13.62a59.12,59.12 0 0 0 -7.33,-0.45l-2.24,0l0,3.74a53.39,53.39 0 0 0 0.59,9.2l-15.4,0a66.1,66.1 0 0 0 0.59,-9.35l0,-3.61l-21.2,0c-4.87,0 -7,0.07 -9.73,0.29l0,-13.44zm31,-7.92c0,-3.37 0.15,-7.48 0.45,-10.77c-1.5,2.09 -2.62,3.59 -4.64,6.13l-10.95,13.31l15.11,0l0.03,-8.67z"/>
  <path id="svg_12" fill="#fff" d="m138.48,119.15a23.66,23.66 0 0 1 -5.46,-8.3a49.74,49.74 0 0 1 -2.92,-17.13c0,-7.86 1.87,-16 4.72,-20.72c4.56,-7.63 12.34,-11.82 21.76,-11.82c7.26,0 13.62,2.47 18.18,7a23.53,23.53 0 0 1 5.46,8.3a49.62,49.62 0 0 1 2.92,17.2c0,7.86 -1.87,16.09 -4.71,20.8c-4.49,7.48 -12.35,11.67 -21.85,11.67c-7.33,-0.04 -13.53,-2.44 -18.1,-7zm7,-26c0,13.39 3.81,20.27 11.22,20.27s11.07,-6.73 11.07,-20c-0.04,-12.87 -3.96,-19.62 -11.19,-19.62c-7.03,0 -11.14,7.13 -11.14,19.32l0.04,0.03z"/>
  <path id="svg_13" fill="#fff" d="m187.02,98.65c3.37,-3.74 3.37,-3.74 7.18,-8.22l16.24,-19a75.28,75.28 0 0 0 6.95,-8.9l15.34,0a107.51,107.51 0 0 0 -0.6,12.41l0,24.31l2.17,0a52,52 0 0 0 7.4,-0.6l0,13.62a59.12,59.12 0 0 0 -7.33,-0.45l-2.24,0l0,3.74a52.27,52.27 0 0 0 0.6,9.2l-15.41,0a65.93,65.93 0 0 0 0.6,-9.35l0,-3.61l-21.17,0c-4.86,0 -7,0.07 -9.73,0.29l0,-13.44zm31,-7.92c0,-3.37 0.15,-7.48 0.45,-10.77c-1.5,2.09 -2.62,3.59 -4.64,6.13l-10.95,13.31l15.11,0l0.03,-8.67z"/>
  <path id="svg_14" fill="#fff" d="m72.11,146.67a22.9,22.9 0 0 1 3.81,-0.3a6.33,6.33 0 0 1 4.32,1.28a4.16,4.16 0 0 1 1.35,3.22a4.51,4.51 0 0 1 -1.19,3.29a6.37,6.37 0 0 1 -4.71,1.69a6.44,6.44 0 0 1 -1.59,-0.14l0,6.17l-2,0l0.01,-15.21zm2,7.42a6.35,6.35 0 0 0 1.64,0.16c2.4,0 3.86,-1.16 3.86,-3.29s-1.44,-3 -3.63,-3a8.36,8.36 0 0 0 -1.87,0.16l0,5.97z"/>
  <path id="svg_15" fill="#fff" d="m84.81,157.04l-1.6,4.84l-2,0l5.22,-15.39l2.38,0l5.25,15.39l-2.12,0l-1.64,-4.84l-5.49,0zm5,-1.55l-1.51,-4.43c-0.34,-1 -0.57,-1.92 -0.8,-2.81l0,0c-0.22,0.91 -0.48,1.85 -0.77,2.78l-1.51,4.46l4.59,0z"/>
  <path id="svg_16" fill="#fff" d="m107.69,161.19a14.31,14.31 0 0 1 -4.73,0.85a7.23,7.23 0 0 1 -7.9,-7.77c0,-4.59 3.17,-7.94 8.33,-7.94a9.48,9.48 0 0 1 3.84,0.71l-0.48,1.62a7.9,7.9 0 0 0 -3.4,-0.66c-3.75,0 -6.19,2.33 -6.19,6.18s2.35,6.22 5.94,6.22a6.44,6.44 0 0 0 2.65,-0.42l0,-4.58l-3.13,0l0,-1.6l5.07,0l0,7.39z"/>
  <path id="svg_17" fill="#fff" d="m118.69,154.66l-6,0l0,5.55l6.67,0l0,1.67l-8.66,0l0,-15.39l8.32,0l0,1.67l-6.31,0l0,4.86l6,0l-0.02,1.64z"/>
  <path id="svg_18" fill="#fff" d="m126.81,161.88l0,-15.39l2.17,0l4.93,7.78a45.68,45.68 0 0 1 2.77,5l0,0c-0.18,-2 -0.23,-3.92 -0.23,-6.32l0,-6.44l1.88,0l0,15.39l-2,0l-4.89,-7.81a49.59,49.59 0 0 1 -2.88,-5.14l-0.07,0c0.12,1.95 0.16,3.8 0.16,6.35l0,6.58l-1.84,0z"/>
  <path id="svg_19" fill="#fff" d="m154.98,154.02c0,5.3 -3.22,8.11 -7.15,8.11s-6.92,-3.15 -6.92,-7.81c0,-4.89 3,-8.08 7.15,-8.08s6.92,3.22 6.92,7.78zm-11.94,0.25c0,3.29 1.78,6.24 4.91,6.24s4.93,-2.9 4.93,-6.4c0,-3.05 -1.6,-6.25 -4.91,-6.25s-4.93,3.04 -4.93,6.41z"/>
  <path id="svg_20" fill="#fff" d="m159.91,148.18l-4.68,0l0,-1.69l11.4,0l0,1.69l-4.71,0l0,13.7l-2,0l-0.01,-13.7z"/>
  <path id="svg_21" fill="#fff" d="m173.18,146.49l8.29,0l0,1.67l-6.3,0l0,5.11l5.82,0l0,1.64l-5.82,0l0,7l-2,0l0.01,-15.42z"/>
  <path id="svg_22" fill="#fff" d="m197.45,154.02c0,5.3 -3.22,8.11 -7.14,8.11c-4.07,0 -6.92,-3.15 -6.92,-7.81c0,-4.89 3,-8.08 7.14,-8.08s6.92,3.22 6.92,7.78zm-11.94,0.25c0,3.29 1.78,6.24 4.91,6.24s4.93,-2.9 4.93,-6.4c0,-3.05 -1.6,-6.25 -4.91,-6.25s-4.93,3.04 -4.93,6.41z"/>
  <path id="svg_23" fill="#fff" d="m202.02,146.49l0,9.11c0,3.45 1.53,4.91 3.59,4.91c2.28,0 3.74,-1.51 3.74,-4.91l0,-9.11l2,0l0,9c0,4.73 -2.49,6.67 -5.82,6.67c-3.15,0 -5.53,-1.8 -5.53,-6.58l0,-9.06l2.02,-0.03z"/>
  <path id="svg_24" fill="#fff" d="m214.81,161.88l0,-15.39l2.17,0l4.93,7.78a43.88,43.88 0 0 1 2.76,5l0.05,0c-0.18,-2 -0.23,-3.92 -0.23,-6.32l0,-6.44l1.87,0l0,15.39l-2,0l-4.88,-7.81a47.8,47.8 0 0 1 -2.88,-5.14l-0.07,0c0.11,1.95 0.16,3.8 0.16,6.35l0,6.58l-1.88,0z"/>
  <path id="svg_25" fill="#fff" d="m229.81,146.69a28.85,28.85 0 0 1 4.23,-0.32c2.85,0 4.89,0.67 6.23,1.92a7.1,7.1 0 0 1 2.17,5.53a8.12,8.12 0 0 1 -2.21,6c-1.44,1.44 -3.82,2.22 -6.81,2.22a30.75,30.75 0 0 1 -3.61,-0.24l0,-15.11zm2,13.61a11.5,11.5 0 0 0 2,0.12c4.25,0 6.55,-2.38 6.55,-6.53c0,-3.63 -2,-5.94 -6.23,-5.94a10.79,10.79 0 0 0 -2.33,0.21l0.01,12.14z"/>
  <path id="svg_26" fill="#eea886" d="m61.61,94.05a5.48,5.48 0 0 1 2.12,1.87a6.69,6.69 0 0 1 0.63,3l0.3,6.45a6.53,6.53 0 0 1 -0.37,3.14a2.27,2.27 0 0 1 -2.58,1.36a9.69,9.69 0 0 1 -0.83,7.59a6.06,6.06 0 0 0 -0.75,1.56a5.79,5.79 0 0 0 0.1,2a11.49,11.49 0 0 1 -2.67,9.09a4.07,4.07 0 0 1 -1.18,1a5,5 0 0 1 -1.88,0.4l-2.94,0.25a1,1 0 0 1 -1.31,-0.89a65.62,65.62 0 0 1 -3,-21.91a63,63 0 0 1 1.34,-11.12c0.47,-2.14 1.39,-5.4 3.68,-6.27c2.96,-1.04 6.78,1.01 9.34,2.48z"/>
  <path id="svg_27" fill="#eea886" d="m254.73,94.05a5.48,5.48 0 0 0 -2.12,1.87a6.69,6.69 0 0 0 -0.63,3l-0.3,6.45a6.53,6.53 0 0 0 0.37,3.14a2.27,2.27 0 0 0 2.58,1.36a9.73,9.73 0 0 0 0.82,7.59a5.78,5.78 0 0 1 0.76,1.56a5.57,5.57 0 0 1 -0.11,2a11.54,11.54 0 0 0 2.68,9.09a4.07,4.07 0 0 0 1.18,1a5,5 0 0 0 1.88,0.4l2.97,0.29a1,1 0 0 0 1.31,-0.89a65.62,65.62 0 0 0 3,-21.91a62.11,62.11 0 0 0 -1.35,-11.12c-0.46,-2.14 -1,-4.82 -3.27,-5.69c-2.99,-1.09 -7.21,0.39 -9.77,1.86z"/>
 </g>
</svg>